<svg xmlns="http://www.w3.org/2000/svg" width="66" height="66" viewBox="0 0 66 66">
  <g id="Group_491" data-name="Group 491" transform="translate(-160 -4464)">
    <rect id="Rectangle_167" data-name="Rectangle 167" width="66" height="66" rx="14" transform="translate(160 4464)" fill="rgba(154,219,198,0.3)"/>
    <g id="Group_487" data-name="Group 487" transform="translate(171 4473)">
      <path id="Path_3111" data-name="Path 3111" d="M-4118.53-627.354l-.071-6.419a4.274,4.274,0,0,0-4.506-4h-3.562a4.326,4.326,0,0,0-4.53,4.077v.149a3.735,3.735,0,0,0,1.364,2.844,4.508,4.508,0,0,0,2.461,1.021c.144.2.252.352.333.475a3.763,3.763,0,0,0-2.609,3.576v1.644h-1.956a5.617,5.617,0,0,0-4.858,2.845,3.762,3.762,0,0,1-3.263,1.894,3.78,3.78,0,0,1-3.279-1.9,5.614,5.614,0,0,0-4.856-2.841h-1.957v-1.643a3.763,3.763,0,0,0-2.61-3.577c.081-.122.189-.279.332-.474a4.512,4.512,0,0,0,2.463-1.022,3.736,3.736,0,0,0,1.364-2.844v-.149a4.326,4.326,0,0,0-4.53-4.077h-3.562a4.275,4.275,0,0,0-4.506,4l-.071,6.41a3.732,3.732,0,0,0-.423,1.727v2.188c0,4.935,4.25,9.026,9.747,9.668v4.614a1.615,1.615,0,0,0,1.615,1.615,1.615,1.615,0,0,0,1.615-1.615V-615.3a1.615,1.615,0,0,0-1.615-1.615h-.1c-4.428,0-8.029-2.928-8.029-6.526v-2.188a.528.528,0,0,1,.527-.527h4.029a.528.528,0,0,1,.528.527v2.046a2.947,2.947,0,0,0,3.048,2.828h2.139a2.377,2.377,0,0,1,2.051,1.211,7.017,7.017,0,0,0,6.084,3.528,7,7,0,0,0,6.069-3.524,2.377,2.377,0,0,1,2.052-1.215h2.138a2.948,2.948,0,0,0,3.048-2.828v-2.046a.528.528,0,0,1,.527-.527h4.03a.528.528,0,0,1,.527.527v2.2c0,3.594-3.6,6.518-8.014,6.518h-.118a1.615,1.615,0,0,0-1.615,1.615v6.141a1.615,1.615,0,0,0,1.615,1.615,1.615,1.615,0,0,0,1.615-1.615v-4.612c5.495-.636,9.747-4.727,9.747-9.662v-2.2A3.728,3.728,0,0,0-4118.53-627.354Zm-39.157-2.026.047-4.339c.007-.387.532-.819,1.277-.819h3.562c.744,0,1.3.447,1.3.846v.149a.543.543,0,0,1-.216.375,1.345,1.345,0,0,1-.852.285h0a2.185,2.185,0,0,0-1.777.826c-.95,1.227-1.4,1.949-1.375,2.673h-1.884C-4157.634-629.385-4157.66-629.381-4157.687-629.381Zm33.94,0c.026-.725-.426-1.446-1.376-2.673a2.184,2.184,0,0,0-1.744-.826h-.022a1.352,1.352,0,0,1-.863-.285.541.541,0,0,1-.217-.375v-.149c0-.4.556-.846,1.3-.846h3.562c.745,0,1.271.432,1.277.81l.048,4.348c-.027,0-.053,0-.081,0Z" transform="translate(4161.364 655.658)" fill="#3ac87a"/>
      <path id="Path_3112" data-name="Path 3112" d="M-4034.546-716.644l1.844,1.009a5.674,5.674,0,0,1,2.259,2.259l1.008,1.844a2.034,2.034,0,0,0,1.785,1.059h0a2.035,2.035,0,0,0,1.786-1.058l1.008-1.844a5.671,5.671,0,0,1,2.259-2.259l1.844-1.009a2.034,2.034,0,0,0,1.059-1.785,2.035,2.035,0,0,0-1.058-1.786l-1.844-1.008a5.673,5.673,0,0,1-2.259-2.259l-1.009-1.844a2.033,2.033,0,0,0-1.785-1.058,2.034,2.034,0,0,0-1.785,1.058l-1.008,1.844a5.677,5.677,0,0,1-2.258,2.259l-1.845,1.009a2.034,2.034,0,0,0-1.058,1.786A2.034,2.034,0,0,0-4034.546-716.644Zm6.9-5.215a8.9,8.9,0,0,0,3.43,3.43,8.9,8.9,0,0,0-3.43,3.43,8.893,8.893,0,0,0-3.43-3.43A8.894,8.894,0,0,0-4027.649-721.859Z" transform="translate(4060.992 726.384)" fill="#3ac87a"/>
      <path id="Path_3113" data-name="Path 3113" d="M-4141.449-693.746l1.057.578a2.565,2.565,0,0,1,1.021,1.021l.578,1.057a1.855,1.855,0,0,0,1.628.965,1.856,1.856,0,0,0,1.628-.965l.578-1.057a2.567,2.567,0,0,1,1.021-1.021l1.057-.578a1.854,1.854,0,0,0,.965-1.628,1.854,1.854,0,0,0-.965-1.628l-1.057-.578a2.568,2.568,0,0,1-1.021-1.02l-.578-1.057a1.856,1.856,0,0,0-1.628-.965,1.855,1.855,0,0,0-1.628.965l-.578,1.057h0a2.562,2.562,0,0,1-1.021,1.02l-1.057.578a1.855,1.855,0,0,0-.965,1.628A1.856,1.856,0,0,0-4141.449-693.746Zm4.284-2.381a5.777,5.777,0,0,0,.752.752,5.774,5.774,0,0,0-.752.752,5.774,5.774,0,0,0-.752-.752A5.747,5.747,0,0,0-4137.165-696.127Z" transform="translate(4146.239 705.824)" fill="#3ac87a"/>
      <path id="Path_3114" data-name="Path 3114" d="M-4080.751-637.533h1.246a5.936,5.936,0,0,0,5.929-5.929v-4.713a5.936,5.936,0,0,0-5.929-5.929h-1.246a5.935,5.935,0,0,0-5.929,5.929v4.713A5.935,5.935,0,0,0-4080.751-637.533Zm-2.7-10.642a2.7,2.7,0,0,1,2.7-2.7h1.246a2.7,2.7,0,0,1,2.7,2.7v4.713a2.7,2.7,0,0,1-2.7,2.7h-1.246a2.7,2.7,0,0,1-2.7-2.7Z" transform="translate(4101.757 668.696)" fill="#3ac87a"/>
    </g>
  </g>
</svg>
