<svg xmlns="http://www.w3.org/2000/svg" width="66" height="66" viewBox="0 0 66 66">
  <g id="Group_492" data-name="Group 492" transform="translate(-160 -4606)">
    <rect id="Rectangle_168" data-name="Rectangle 168" width="66" height="66" rx="14" transform="translate(160 4606)" fill="rgba(154,219,198,0.3)"/>
    <g id="Group_488" data-name="Group 488" transform="translate(179 4616)">
      <path id="Path_3115" data-name="Path 3115" d="M-3849.769-678.894h-16.043a5.885,5.885,0,0,0-5.878,5.878v24.258a5.885,5.885,0,0,0,5.878,5.878h16.043a5.885,5.885,0,0,0,5.878-5.878v-24.258A5.885,5.885,0,0,0-3849.769-678.894Zm2.648,30.136a2.651,2.651,0,0,1-2.648,2.648h-16.043a2.651,2.651,0,0,1-2.648-2.648v-24.258a2.651,2.651,0,0,1,2.648-2.648h16.043a2.651,2.651,0,0,1,2.648,2.648Z" transform="translate(3871.691 688.351)" fill="#3ac87a"/>
      <path id="Path_3116" data-name="Path 3116" d="M-3817.753-643.246a3.777,3.777,0,0,0,3.773-3.773,3.777,3.777,0,0,0-3.773-3.773,3.777,3.777,0,0,0-3.773,3.773A3.777,3.777,0,0,0-3817.753-643.246Zm0-4.315a.543.543,0,0,1,.542.543.543.543,0,0,1-.542.543.543.543,0,0,1-.542-.543A.543.543,0,0,1-3817.753-647.561Z" transform="translate(3831.653 665.921)" fill="#3ac87a"/>
      <path id="Path_3117" data-name="Path 3117" d="M-3828.365-603.842a1.615,1.615,0,0,0,1.923-1.232,2.276,2.276,0,0,1,2.211-1.778,2.283,2.283,0,0,1,2.222,1.778,1.616,1.616,0,0,0,1.576,1.27,1.619,1.619,0,0,0,.347-.038,1.615,1.615,0,0,0,1.232-1.923,5.532,5.532,0,0,0-5.377-4.317,5.526,5.526,0,0,0-5.367,4.317A1.615,1.615,0,0,0-3828.365-603.842Z" transform="translate(3838.125 633.43)" fill="#3ac87a"/>
      <path id="Path_3118" data-name="Path 3118" d="M-3825.264-569.884a1.615,1.615,0,0,0-1.615,1.615,1.615,1.615,0,0,0,1.615,1.615h6.477a1.615,1.615,0,0,0,1.615-1.615,1.615,1.615,0,0,0-1.615-1.615Z" transform="translate(3835.926 601.347)" fill="#3ac87a"/>
      <path id="Path_3119" data-name="Path 3119" d="M-3827.283-547.086h-12.229a1.615,1.615,0,0,0-1.615,1.615,1.615,1.615,0,0,0,1.615,1.615h12.229a1.615,1.615,0,0,0,1.615-1.615A1.615,1.615,0,0,0-3827.283-547.086Z" transform="translate(3847.297 583.152)" fill="#3ac87a"/>
      <path id="Path_3120" data-name="Path 3120" d="M-3809.47-719.249a1.615,1.615,0,0,0,1.615-1.615v-3.258a1.615,1.615,0,0,0-1.615-1.615,1.615,1.615,0,0,0-1.615,1.615v3.258A1.615,1.615,0,0,0-3809.47-719.249Z" transform="translate(3823.32 725.737)" fill="#3ac87a"/>
      <path id="Path_3121" data-name="Path 3121" d="M-3784.454-706.837a1.608,1.608,0,0,0,1.083-.418l2.416-2.186a1.615,1.615,0,0,0,.114-2.281,1.615,1.615,0,0,0-2.281-.114l-2.416,2.186a1.615,1.615,0,0,0-.114,2.281A1.611,1.611,0,0,0-3784.454-706.837Z" transform="translate(3803.355 714.975)" fill="#3ac87a"/>
      <path id="Path_3122" data-name="Path 3122" d="M-3844.627-707.255a1.608,1.608,0,0,0,1.083.418,1.611,1.611,0,0,0,1.2-.531,1.615,1.615,0,0,0-.114-2.281l-2.416-2.186a1.615,1.615,0,0,0-2.281.114,1.615,1.615,0,0,0,.114,2.281Z" transform="translate(3852.443 714.975)" fill="#3ac87a"/>
    </g>
  </g>
</svg>
