<svg xmlns="http://www.w3.org/2000/svg" width="66" height="66" viewBox="0 0 66 66">
  <g id="Group_490" data-name="Group 490" transform="translate(-160 -4344)">
    <rect id="Rectangle_166" data-name="Rectangle 166" width="66" height="66" rx="14" transform="translate(160 4344)" fill="rgba(154,219,198,0.3)"/>
    <g id="Group_486" data-name="Group 486" transform="translate(169 4357)">
      <path id="Path_3108" data-name="Path 3108" d="M-4414.57-600.9c-.789-.628-2.112-1.118-7.867,1.026-.9.335-1.815.7-2.68,1.067-1.354-1.059-4.278-2.631-9.9-2.9a8.9,8.9,0,0,1-2.967-1.933c-1.883-1.638-6.084-2.487-12.265-.032l-2.929.01a3.982,3.982,0,0,0-3.471-2.038h-1.431a3.985,3.985,0,0,0-3.98,3.98v9.987a3.985,3.985,0,0,0,3.98,3.98h1.431a3.976,3.976,0,0,0,3.253-1.694h2.74c1.6.864,7.479,3.553,18.813,3.552.263,0,.531,0,.8,0a10.6,10.6,0,0,0,4.88-1.251,7.575,7.575,0,0,0,1.31-.859c.139-.117.535-.42.993-.771,4.681-3.58,9.125-7.234,9.937-9.706A2.139,2.139,0,0,0-4414.57-600.9Zm-42.08,9.911h-1.431a.751.751,0,0,1-.75-.75v-9.987a.751.751,0,0,1,.75-.75h1.431a.751.751,0,0,1,.75.75v9.987A.751.751,0,0,1-4456.65-590.992Zm30.826-.363c-.553.423-.918.7-1.118.871a4.465,4.465,0,0,1-.752.48,7.351,7.351,0,0,1-3.387.867c-12.679.144-18.223-3.26-18.27-3.289a1.613,1.613,0,0,0-.877-.259h-2.443v-7.756l2.742-.01a1.615,1.615,0,0,0,.607-.121c5.348-2.194,8.367-1.377,9.216-.639,2.706,2.353,4.307,2.67,4.733,2.711l.082.006a18.433,18.433,0,0,1,6.608,1.324c-.251.131-.462.247-.624.345-.933.564-5.187.651-8.574.379a1.616,1.616,0,0,0-1.739,1.48,1.615,1.615,0,0,0,1.479,1.739c1.888.152,8.227.541,10.5-.834a54.187,54.187,0,0,1,9.5-3.838A65.088,65.088,0,0,1-4425.824-591.356Z" transform="translate(4462.061 625.509)" fill="#3ac87a"/>
      <path id="Path_3109" data-name="Path 3109" d="M-4329.205-682.231a10.79,10.79,0,0,0,10.777-10.778,10.79,10.79,0,0,0-10.777-10.777,10.79,10.79,0,0,0-10.778,10.777A10.79,10.79,0,0,0-4329.205-682.231Zm0-18.325a7.556,7.556,0,0,1,7.547,7.547,7.556,7.556,0,0,1-7.547,7.547,7.556,7.556,0,0,1-7.547-7.547A7.556,7.556,0,0,1-4329.205-700.556Z" transform="translate(4364.628 703.786)" fill="#3ac87a"/>
      <path id="Path_3110" data-name="Path 3110" d="M-4292.982-670.223h4.4a1.615,1.615,0,0,0,1.615-1.615,1.615,1.615,0,0,0-1.615-1.615h-2.786v-2.192a1.615,1.615,0,0,0-1.615-1.615,1.615,1.615,0,0,0-1.615,1.615v3.807A1.615,1.615,0,0,0-4292.982-670.223Z" transform="translate(4328.405 682.615)" fill="#3ac87a"/>
    </g>
  </g>
</svg>
